<svg xmlns="http://www.w3.org/2000/svg" width="24" height="24" viewBox="0 0 48 48">
    <path fill="#45413c" d="M4 36h40c0 2-2 4-4 4H8c-2 0-4-2-4-4z" opacity=".15" />
    <path fill="#4acfff" stroke="#45413c" stroke-width="2" stroke-linecap="round" stroke-linejoin="round" d="M8 34h32a2 2 0 0 0 2-2v-8a4 4 0 0 0-4-4H10a4 4 0 0 0-4 4v8a2 2 0 0 0 2 2z" />
    <path fill="#80ddff" stroke="#45413c" stroke-width="2" stroke-linecap="round" stroke-linejoin="round" d="M12 20l4-10h16l4 10H12z" />
    <path fill="#c0dceb" stroke="#45413c" stroke-width="2" stroke-linecap="round" stroke-linejoin="round" d="M17 13h14l2.5 7H14.5L17 13z" />
    <circle cx="14" cy="34" r="5" fill="#45413c" stroke="#45413c" stroke-width="2" />
    <circle cx="14" cy="34" r="2" fill="#fff" />
    <circle cx="34" cy="34" r="5" fill="#45413c" stroke="#45413c" stroke-width="2" />
    <circle cx="34" cy="34" r="2" fill="#fff" />
    <path fill="#fff" d="M40 24h2v4h-2z" />
    <path fill="#ffeb3b" d="M6 24h2v4H6z" />
    <path fill="#00b8f0" d="M10 28h28v2H10z" opacity="0.5" />
</svg>
